<svg version="1" xmlns="http://www.w3.org/2000/svg" width="346.667" height="346.667" viewBox="0 0 260.000000 260.000000"><path d="M177.5 45.5c-3.4 3.5-6.2 10-15.6 36.5-6.5 18.4-11.1 27.2-17.4 33.6-6.8 6.9-11.9 8.3-21.1 6-17.7-4.5-29.5-17.2-44.4-47.8-8.8-18.1-13.7-23-18.4-18.2-3.6 3.6-2.1 7.3 10.8 26.8 6.9 10.4 14.9 22.9 17.8 27.9 3.1 5.3 8.4 12.4 12.6 16.9 12.1 12.7 20.9 15.5 32 10.3 5.9-2.7 14.2-10.7 18.8-17.9 5.9-9.4 6.6-5.5 3.4 21.4-4.8 40.4-4.9 57.8-.3 66.7 2.4 4.6 6.6 6.9 10.2 5.7l2.6-.9.1-24.5c.2-28.7 2.4-50.7 10.9-107.5 3.5-23.4 5.2-37.4 4.6-38-1.2-1.3-3.7-.2-6.6 3z"/></svg>